<svg width="554" height="236" viewBox="0 0 554 236" fill="none" xmlns="http://www.w3.org/2000/svg">
<g clip-path="url(#clip0_1_158)">
<g clip-path="url(#clip1_1_158)">
<path d="M18.808 3.62195H115.128V36.7219H55.218V101.272H102.218V134.372H55.218V235.322H18.808V3.62195Z" fill="#FC6F2F"/>
<path d="M132.668 3.62195H169.078V235.322H132.668V3.62195Z" fill="#FC6F2F"/>
<path d="M196.218 3.62195H251.828C269.921 3.62195 283.495 8.47528 292.548 18.1819C301.595 27.8953 306.118 42.1286 306.118 60.8819V178.062C306.118 196.815 301.595 211.049 292.548 220.762C283.495 230.469 269.921 235.322 251.828 235.322H196.218V3.62195ZM251.168 202.222C257.128 202.222 261.708 200.455 264.908 196.922C268.108 193.395 269.708 187.659 269.708 179.712V59.2319C269.708 51.2853 268.108 45.5486 264.908 42.0219C261.708 38.4886 257.128 36.7219 251.168 36.7219H232.628V202.222H251.168Z" fill="#FC6F2F"/>
<path d="M330.608 3.62195H429.908V36.7219H367.018V97.9619H416.998V131.062H367.018V202.222H429.908V235.322H330.608V3.62195Z" fill="#FC6F2F"/>
<path d="M450.758 3.62195H487.168V202.222H547.078V235.322H450.758V3.62195Z" fill="#FC6F2F"/>
<path d="M5.922 0.401978H102.242V33.502H42.332V98.052H89.332V131.152H42.332V232.102H5.922V0.401978Z" fill="#515838"/>
<path d="M119.783 0.401978H156.193V232.102H119.783V0.401978Z" fill="#515838"/>
<path d="M183.333 0.401978H238.943C257.036 0.401978 270.61 5.25531 279.663 14.962C288.71 24.6753 293.233 38.9086 293.233 57.662V174.842C293.233 193.595 288.71 207.829 279.663 217.542C270.61 227.249 257.036 232.102 238.943 232.102H183.333V0.401978ZM238.283 199.002C244.243 199.002 248.823 197.235 252.023 193.702C255.223 190.175 256.823 184.439 256.823 176.492V56.012C256.823 48.0653 255.223 42.3286 252.023 38.802C248.823 35.2686 244.243 33.502 238.283 33.502H219.743V199.002H238.283Z" fill="#515838"/>
<path d="M317.722 0.401978H417.022V33.502H354.132V94.742H404.112V127.842H354.132V199.002H417.022V232.102H317.722V0.401978Z" fill="#515838"/>
<path d="M437.873 0.401978H474.283V199.002H534.193V232.102H437.873V0.401978Z" fill="#515838"/>
</g>
</g>
<defs>
<clipPath id="clip0_1_158">
<rect width="554" height="236" fill="white"/>
</clipPath>
<clipPath id="clip1_1_158">
<rect width="553" height="239" fill="white" transform="translate(1 -3)"/>
</clipPath>
</defs>
</svg>
